<?xml version="1.0" encoding="utf-8"?>
<!-- Generator: Adobe Illustrator 28.2.0, SVG Export Plug-In . SVG Version: 6.00 Build 0)  -->
<svg version="1.1" id="Layer_1" xmlns="http://www.w3.org/2000/svg" xmlns:xlink="http://www.w3.org/1999/xlink" x="0px" y="0px"
	 viewBox="0 0 800 800" style="enable-background:new 0 0 800 800;" xml:space="preserve">
<style type="text/css">
	.st0{fill:#FFFFFF;}
</style>
<path class="st0" d="M539.7,77.6H260.3c-121.3,0-193.7,72.7-193.7,194v279c0,121.3,72.3,193.7,193.7,193.7h279
	c121.3,0,193.7-72.3,193.7-193.7v-279C733.3,150.3,661,77.6,539.7,77.6z M385.7,570.6c0,10-5,19-13.7,24.3c-4.7,3-9.7,4.3-15,4.3
	c-4.3,0-8.7-1-13-3l-116.7-58.3c-16.7-8.7-27.3-25.7-27.3-44.7V382.9c0-10,5-19,13.7-24.3c8.7-5.3,19-5.7,28-1.3l116.7,58.3
	c17,8.7,27.7,25.7,27.7,44.7v110.3H385.7z M378.7,392.3l-125.3-67.7c-9-5-14.7-14.7-14.7-25.7c0-10.7,5.7-20.7,14.7-25.7l125.3-67.7
	c13.3-7,29-7,42.3,0l125.3,67.7c9,5,14.7,14.7,14.7,25.7s-5.7,20.7-14.7,25.7L421,392.3c-6.7,3.7-14,5.3-21.3,5.3
	C392.3,397.6,385.3,395.9,378.7,392.3z M600,493.3c0,19-10.7,36.3-27.7,44.7l-116.7,58.3c-4,2-8.3,3-13,3c-5.3,0-10.3-1.3-15-4.3
	c-8.7-5.3-13.7-14.3-13.7-24.3V460.3c0-19,10.7-36.3,27.7-44.7l116.7-58.3c9-4.3,19.3-4,28,1.3c8.7,5.3,13.7,14.3,13.7,24.3V493.3z"
	/>
</svg>
