<?xml version="1.0" encoding="utf-8"?>
<!-- Generator: Adobe Illustrator 28.2.0, SVG Export Plug-In . SVG Version: 6.00 Build 0)  -->
<svg version="1.1" id="Layer_1" xmlns="http://www.w3.org/2000/svg" xmlns:xlink="http://www.w3.org/1999/xlink" x="0px" y="0px"
	 viewBox="0 0 800 800" style="enable-background:new 0 0 800 800;" xml:space="preserve">
<style type="text/css">
	.st0{fill:#FFFFFF;}
</style>
<path class="st0" d="M700,733.3c-8.6,0-17.1-3.3-23.7-9.8L554.4,600.7c-53.1,42.8-118.6,66-187.8,66c-80.1,0-155.5-31.2-212.1-87.9
	c-56.7-56.7-87.9-132-87.9-212.1s31.2-155.5,87.9-212.1c56.7-56.7,132-87.9,212.1-87.9s155.5,31.2,212.1,87.9
	c56.7,56.7,87.9,132,87.9,212.1c0,68.7-22.9,133.9-65.2,186.8l122.2,123.1c13,13.1,12.9,34.2-0.2,47.1
	C717,730.1,708.5,733.3,700,733.3z M366.7,133.3c-62.3,0-120.9,24.3-165,68.3s-68.3,102.7-68.3,165c0,62.3,24.3,120.9,68.3,165
	c44.1,44.1,102.7,68.3,165,68.3c62.3,0,120.9-24.3,165-68.3c0.2-0.2,0.3-0.3,0.4-0.4c0,0,0,0,0,0c43.8-44,67.9-102.4,67.9-164.5
	c0-62.3-24.3-120.9-68.3-165C487.6,157.6,429,133.3,366.7,133.3z"/>
</svg>
