<?xml version="1.0" encoding="utf-8"?>
<!-- Generator: Adobe Illustrator 28.2.0, SVG Export Plug-In . SVG Version: 6.00 Build 0)  -->
<svg version="1.1" id="Layer_1" xmlns="http://www.w3.org/2000/svg" xmlns:xlink="http://www.w3.org/1999/xlink" x="0px" y="0px"
	 viewBox="0 0 800 800" style="enable-background:new 0 0 800 800;" xml:space="preserve">
<style type="text/css">
	.st0{fill:#FFFFFF;}
</style>
<path class="st0" d="M539.7,66.7H260.3C139,66.7,66.7,139,66.7,260.3v279c0,121.7,72.3,194,193.7,194h279
	C660.7,733.3,733,661,733,539.7V260.3C733.3,139,661,66.7,539.7,66.7z M595,470c-1.3,3-3,5.7-5.3,8L488.3,579.3
	c-5,5-11.3,7.3-17.7,7.3s-12.7-2.3-17.7-7.3c-9.7-9.7-9.7-25.7,0-35.3l58.7-58.7H228.3c-13.7,0-25-11.3-25-25c0-13.7,11.3-25,25-25
	H572c3.3,0,6.3,0.7,9.7,2c6,2.7,11,7.3,13.7,13.7C597.3,457,597.3,464,595,470z M571.7,364.3H228.3c-3.3,0-6.3-0.7-9.7-2
	c-6-2.7-11-7.3-13.7-13.7c-2.7-6-2.7-13,0-19c1.3-3,3-5.7,5.3-8l101.3-101.3c9.7-9.7,25.7-9.7,35.3,0c9.7,9.7,9.7,25.7,0,35.3
	l-58.3,58.7H572c13.7,0,25,11.3,25,25C597,353,585.7,364.3,571.7,364.3z"/>
</svg>
