<?xml version="1.0" encoding="utf-8"?>
<!-- Generator: Adobe Illustrator 28.2.0, SVG Export Plug-In . SVG Version: 6.00 Build 0)  -->
<svg version="1.1" id="Layer_1" xmlns="http://www.w3.org/2000/svg" xmlns:xlink="http://www.w3.org/1999/xlink" x="0px" y="0px"
	 viewBox="0 0 800 800" style="enable-background:new 0 0 800 800;" xml:space="preserve">
<style type="text/css">
	.st0{fill:#FFFFFF;}
</style>
<path class="st0" d="M539.7,66.7H260.3C139,66.7,66.7,139,66.7,260.3v279c0,121.7,72.3,194,193.7,194h279
	C660.7,733.3,733,661,733,539.7V260.3C733.3,139,661,66.7,539.7,66.7z M337.7,483.3c9.7,9.7,9.7,25.7,0,35.3c-5,5-11.3,7.3-17.7,7.3
	c-6.3,0-12.7-2.3-17.7-7.3l-83-83c-19.7-19.7-19.7-51.3,0-71l83-83c9.7-9.7,25.7-9.7,35.3,0c9.7,9.7,9.7,25.7,0,35.3l-83,83
	L337.7,483.3z M580.7,435.3l-83,83c-5,5-11.3,7.3-17.7,7.3c-6.3,0-12.7-2.3-17.7-7.3c-9.7-9.7-9.7-25.7,0-35.3l83-83l-83-83.3
	c-9.7-9.7-9.7-25.7,0-35.3s25.7-9.7,35.3,0l83,83C600.3,384,600.3,416,580.7,435.3z"/>
</svg>
