<?xml version="1.0" encoding="utf-8"?>
<!-- Generator: Adobe Illustrator 28.2.0, SVG Export Plug-In . SVG Version: 6.00 Build 0)  -->
<svg version="1.1" id="Layer_1" xmlns="http://www.w3.org/2000/svg" xmlns:xlink="http://www.w3.org/1999/xlink" x="0px" y="0px"
	 viewBox="0 0 800 800" style="enable-background:new 0 0 800 800;" xml:space="preserve">
<style type="text/css">
	.st0{fill-rule:evenodd;clip-rule:evenodd;fill:#FFFFFF;}
</style>
<path class="st0" d="M400,733.3c-157.1,0-235.7,0-284.5-48.8C66.7,635.7,66.7,557.1,66.7,400c0-157.1,0-235.7,48.8-284.5
	C164.3,66.7,242.9,66.7,400,66.7c157.1,0,235.7,0,284.5,48.8c48.8,48.8,48.8,127.4,48.8,284.5c0,157.1,0,235.7-48.8,284.5
	C635.7,733.3,557.1,733.3,400,733.3z M534.3,299c9.8,9.8,9.8,25.6,0,35.4L367.7,501c-9.8,9.8-25.6,9.8-35.4,0l-66.7-66.7
	c-9.8-9.8-9.8-25.6,0-35.4c9.8-9.8,25.6-9.8,35.4,0l49,49l149-149C508.8,289.2,524.6,289.2,534.3,299z"/>
</svg>
