<?xml version="1.0" encoding="utf-8"?>
<!-- Generator: Adobe Illustrator 28.2.0, SVG Export Plug-In . SVG Version: 6.00 Build 0)  -->
<svg version="1.1" id="Layer_1" xmlns="http://www.w3.org/2000/svg" xmlns:xlink="http://www.w3.org/1999/xlink" x="0px" y="0px"
	 viewBox="0 0 800 800" style="enable-background:new 0 0 800 800;" xml:space="preserve">
<style type="text/css">
	.st0{fill:#FFFFFF;}
</style>
<path class="st0" d="M539.7,66.7H260.3C139,66.7,66.7,139,66.7,260.3v279c0,121.7,72.3,194,193.7,194h279
	C660.7,733.3,733,661,733,539.7V260.3C733.3,139,661,66.7,539.7,66.7z M400,200c66.3,0,120,53.7,120,120c0,15.7-3,30.7-8.3,44.3
	C498,399,468.3,426,431.7,436c-10,2.7-20.7,4.3-31.7,4.3c-11,0-21.7-1.3-31.7-4.3c-36.7-10-66.3-36.7-80-71.7
	c-5.3-13.7-8.3-28.7-8.3-44.3C280,253.7,333.7,200,400,200z M320,600c-66.3,0-120-53.7-120-120c0-37.8,17.6-71.5,44.8-93.5
	c7.9-6.4,19.2-2.4,24.1,6.5c19.5,35,52.6,60.9,91.4,71.3c12.7,3.7,25.7,5.3,39.7,5.3c8.3,0,16.2-0.6,23.9-1.8
	c7.9-1.3,16.1,3.8,16.1,11.8c0,35.3-15.3,67.3-40,89.3C378.7,588.3,350.7,600,320,600z M480,600c-11.6,0-23-1.6-33.7-4.7
	c-10.9-3.2-12.9-16.7-6.1-25.8C459.4,544,470,512.5,470,480c0-6.7-0.7-13.7-1.7-20c-0.6-3.8,1.3-7.5,4.7-9.3
	c24.1-13.5,44.4-33.2,57.8-57.5c4.9-8.9,16.2-13,24.2-6.6c27.4,22,45,55.7,45,93.5C600,546.3,546.3,600,480,600z"/>
</svg>
