<?xml version="1.0" encoding="utf-8"?>
<!-- Generator: Adobe Illustrator 28.2.0, SVG Export Plug-In . SVG Version: 6.00 Build 0)  -->
<svg version="1.1" id="Layer_1" xmlns="http://www.w3.org/2000/svg" xmlns:xlink="http://www.w3.org/1999/xlink" x="0px" y="0px"
	 viewBox="0 0 800 800" style="enable-background:new 0 0 800 800;" xml:space="preserve">
<style type="text/css">
	.st0{fill:#FF1312;}
</style>
<path class="st0" d="M710,403.3c0,171.5-139,310.5-310.5,310.5S89.1,574.7,89.1,403.3s139-310.5,310.5-310.5l0,0
	C571,92.8,710,231.7,710,403.3C710,403.2,710,403.2,710,403.3z M438.4,563.4c0-21.7-17.6-39.3-39.3-39.3s-39.3,17.6-39.3,39.3
	c0,21.7,17.6,39.3,39.3,39.3C420.8,602.8,438.4,585.2,438.4,563.4C438.4,563.4,438.4,563.4,438.4,563.4z M368.5,452.2
	c0.6,17.1,15,30.5,32.1,29.9c16.3-0.6,29.4-13.6,29.9-29.9V206.4c-0.6-17.1-15-30.5-32.1-29.9c-16.3,0.6-29.4,13.6-29.9,29.9
	L368.5,452.2z"/>
</svg>
