<?xml version="1.0" encoding="utf-8"?>
<!-- Generator: Adobe Illustrator 28.2.0, SVG Export Plug-In . SVG Version: 6.00 Build 0)  -->
<svg version="1.1" id="Layer_1" xmlns="http://www.w3.org/2000/svg" xmlns:xlink="http://www.w3.org/1999/xlink" x="0px" y="0px"
	 viewBox="0 0 800 800" style="enable-background:new 0 0 800 800;" xml:space="preserve">
<style type="text/css">
	.st0{fill:#FFFFFF;}
</style>
<path class="st0" d="M539.7,66.7H260.3C139,66.7,66.7,139,66.7,260.3v279.3c0,121.3,72.3,193.7,193.7,193.7h279.3
	c121.3,0,193.7-72.3,193.7-193.7V260.3C733.3,139,661,66.7,539.7,66.7z M332.3,496.7l-75,75c-5,5-11.3,7.3-17.7,7.3
	c-6.3,0-13-2.3-17.7-7.3l-25-25c-10-9.7-10-25.7,0-35.3c9.7-9.7,25.3-9.7,35.3,0l7.3,7.3l57.3-57.3c9.7-9.7,25.3-9.7,35.3,0
	C342,471,342,487,332.3,496.7z M332.3,263.3l-75,75c-5,5-11.3,7.3-17.7,7.3c-6.3,0-13-2.3-17.7-7.3l-25-25c-10-9.7-10-25.7,0-35.3
	c9.7-9.7,25.3-9.7,35.3,0l7.3,7.3L297,228c9.7-9.7,25.3-9.7,35.3,0C342,237.7,342,253.7,332.3,263.3z M585.3,554h-175
	c-13.7,0-25-11.3-25-25s11.3-25,25-25h175c14,0,25,11.3,25,25S599.3,554,585.3,554z M585.3,320.7h-175c-13.7,0-25-11.3-25-25
	s11.3-25,25-25h175c14,0,25,11.3,25,25S599.3,320.7,585.3,320.7z"/>
</svg>
