<?xml version="1.0" encoding="utf-8"?>
<!-- Generator: Adobe Illustrator 28.2.0, SVG Export Plug-In . SVG Version: 6.00 Build 0)  -->
<svg version="1.1" id="Layer_1" xmlns="http://www.w3.org/2000/svg" xmlns:xlink="http://www.w3.org/1999/xlink" x="0px" y="0px"
	 viewBox="0 0 800 800" style="enable-background:new 0 0 800 800;" xml:space="preserve">
<style type="text/css">
	.st0{fill:#FFFFFF;}
</style>
<path class="st0" d="M733.3,708.3H700V332.6c0-20.7-9.3-40-25.7-52.7l-41-32l-0.7-81.7c0-18.3-15-33-33.3-33H485.7L441,98.6
	c-24-19-58-19-82,0L125.7,280c-16.3,12.7-25.7,32-25.7,52.3l-1.7,376H66.7c-13.7,0-25,11.3-25,25c0,13.7,11.3,25,25,25h666.7
	c13.7,0,25-11.3,25-25C758.3,719.6,747,708.3,733.3,708.3z M483.3,708.3H316.7v-91.7c0-27.7,22.3-50,50-50h66.7
	c27.7,0,50,22.3,50,50V708.3z"/>
</svg>
