<?xml version="1.0" encoding="UTF-8"?><svg id="Layer_1" xmlns="http://www.w3.org/2000/svg" viewBox="0 0 287.6 135.24"><defs><style>.cls-1{fill:#fff;stroke-width:0px;}</style></defs><path class="cls-1" d="M76.88,67.62c7.13-6.79,11.73-16.21,12.2-26.7.04-.97-.76-1.78-1.74-1.78h-18.29c-.88,0-1.64.65-1.72,1.52-.77,9-8.35,16.09-17.55,16.09s-16.78-7.09-17.55-16.09c-.08-.87-.84-1.52-1.72-1.52H12.24c-.97,0-1.78.81-1.74,1.78.47,10.48,5.07,19.91,12.2,26.7-7.13,6.79-11.73,16.21-12.2,26.7-.04.97.76,1.78,1.74,1.78h18.29c.88,0,1.64-.65,1.72-1.52.77-9,8.35-16.09,17.55-16.09s16.78,7.09,17.55,16.09c.08.87.84,1.52,1.72,1.52h18.29c.97,0,1.78-.81,1.74-1.78-.47-10.48-5.07-19.91-12.2-26.7Z"/><circle class="cls-1" cx="21.32" cy="113.88" r="10.86"/><circle class="cls-1" cx="78.27" cy="113.88" r="10.86"/><circle class="cls-1" cx="21.32" cy="21.36" r="10.86"/><circle class="cls-1" cx="78.27" cy="21.36" r="10.86"/><path class="cls-1" d="M144.43,30.99v-8.14h11.39v37.98h-11.39v-8.46c0-3.12-2.53-5.64-5.64-5.64h0c-3.12,0-5.64,2.53-5.64,5.64v8.46h-11.39V22.85h11.39v8.14c0,3.12,2.53,5.64,5.64,5.64h0c3.12,0,5.64-2.53,5.64-5.64Z"/><path class="cls-1" d="M179.42,22.85c3.07,0,5.8.53,8.17,1.6,2.37,1.07,4.22,2.6,5.56,4.58,1.34,1.99,2.01,4.32,2.01,7s-.67,5.01-2.01,7c-1.34,1.99-3.19,3.52-5.56,4.58-2.37,1.07-5.09,1.6-8.17,1.6h-3.74v11.61h-11.39V22.85h15.14ZM178.55,40.04c1.59,0,2.81-.37,3.66-1.11.85-.74,1.28-1.71,1.28-2.9s-.43-2.17-1.28-2.93c-.85-.76-2.07-1.14-3.66-1.14h-2.88v8.08h2.88Z"/><path class="cls-1" d="M215.77,22.85c3.07,0,5.8.53,8.17,1.6,2.37,1.07,4.22,2.6,5.56,4.58,1.34,1.99,2.01,4.32,2.01,7s-.67,5.01-2.01,7-3.19,3.52-5.56,4.58c-2.37,1.07-5.09,1.6-8.17,1.6h-3.74v11.61h-11.39V22.85h15.14ZM214.9,40.04c1.59,0,2.81-.37,3.66-1.11.85-.74,1.28-1.71,1.28-2.9s-.43-2.17-1.28-2.93c-.85-.76-2.07-1.14-3.66-1.14h-2.88v8.08h2.88Z"/><path class="cls-1" d="M121.75,72.85h16.52c8.76.05,14.43,5.51,14.43,13.77s-5.84,13.49-14.76,13.55h-5.95v11.68h-10.24v-38.99ZM135.96,92.12c3.86,0,6.06-2.15,6.06-5.51s-2.2-5.51-6.06-5.51h-3.96v11.02h3.96Z"/><path class="cls-1" d="M155.2,97.3c0-8.98,5.62-15.03,14.98-15.09,9.47.06,15.09,6.11,15.09,15.09s-5.62,15.09-15.09,15.09-14.98-6.11-14.98-15.09ZM170.29,104.79c2.86.06,4.57-2.92,4.62-7.6-.05-4.63-1.76-7.55-4.62-7.49-2.98-.06-4.74,2.86-4.74,7.49s1.76,7.66,4.74,7.6Z"/><path class="cls-1" d="M189.69,82.65h9.8v5.51h.33c1.04-4.07,3.52-5.89,6.72-5.95.88.06,1.76.17,2.65.44v8.7c-1.05-.33-2.75-.55-3.86-.55-3.14,0-5.51,2.26-5.51,5.62v15.42h-10.13v-29.19Z"/><path class="cls-1" d="M231.06,90.03h-5.07v12.45c.06,1.38.72,1.93,2.09,1.98.77.05,2.26-.06,3.41-.11v7.6c-.93.11-2.53.33-4.84.33-7.05,0-10.85-2.7-10.79-8.81v-13.44h-3.74v-7.38h3.74v-7.05h10.13v7.05h5.07v7.38Z"/><path class="cls-1" d="M244.85,94.43c2.15-.11,5.62-.16,6.83-.22v-2.31c-.06-1.71-1.38-2.59-3.31-2.64-2.15.06-3.52.94-3.74,2.75h-9.48c.44-5.29,4.74-9.75,13.33-9.8,8.1.06,13.33,4.08,13.33,9.69v19.94h-9.47v-4.08h-.22c-1.76,3.2-4.63,4.57-8.48,4.52-5.62.05-9.53-2.7-9.58-8.48.05-6.44,4.85-8.98,10.79-9.36ZM246.94,105.78c2.48.06,4.79-1.6,4.74-4.3v-1.6c-1.05.06-3.69.17-5.07.28-1.76.22-2.92,1.43-2.97,3.08.05,1.65,1.38,2.59,3.31,2.53Z"/><path class="cls-1" d="M277.14,111.84h-10.13v-38.99h10.13v38.99Z"/></svg>