<svg xmlns="http://www.w3.org/2000/svg" width="22" height="22" fill="none" overflow="visible"><path d="M 11 0 C 4.925 0 0 4.925 0 11 C 0 17.075 4.925 22 11 22 C 17.075 22 22 17.075 22 11 C 22 4.925 17.075 0 11 0 Z M 8.924 16.276 C 8.924 15.52 9.537 14.906 10.294 14.906 C 11.05 14.906 11.664 15.52 11.664 16.276 C 11.664 17.032 11.05 17.646 10.294 17.646 C 9.537 17.646 8.924 17.032 8.924 16.276 Z M 14.765 9.404 C 14.611 9.825 14.387 10.19 14.134 10.493 C 13.625 11.101 13.021 11.469 12.525 11.741 C 12.193 11.921 11.9 12.059 11.718 12.161 C 11.594 12.23 11.526 12.288 11.493 12.325 C 11.46 12.365 11.448 12.381 11.428 12.447 C 11.417 12.49 11.404 12.559 11.404 12.666 L 11.404 13.203 C 11.404 13.481 11.179 13.707 10.901 13.707 L 9.687 13.707 C 9.408 13.707 9.183 13.481 9.183 13.203 L 9.183 12.666 C 9.183 12.389 9.215 12.118 9.286 11.859 C 9.356 11.601 9.467 11.355 9.608 11.141 C 9.892 10.708 10.276 10.419 10.639 10.218 C 10.957 10.043 11.272 9.898 11.564 9.734 C 11.855 9.571 12.115 9.394 12.307 9.202 C 12.435 9.074 12.535 8.942 12.612 8.793 C 12.712 8.594 12.781 8.36 12.783 8.003 C 12.784 7.897 12.753 7.758 12.67 7.599 C 12.587 7.44 12.452 7.268 12.272 7.114 C 11.909 6.802 11.376 6.575 10.766 6.576 C 10.066 6.578 9.598 6.742 9.237 6.946 C 8.877 7.151 8.763 7.358 8.763 7.358 C 8.579 7.518 8.307 7.524 8.117 7.372 L 7.184 6.624 C 7.067 6.531 6.998 6.39 6.995 6.241 C 6.993 6.091 7.057 5.948 7.17 5.85 C 7.17 5.85 7.46 5.402 8.134 5.017 C 8.806 4.631 9.695 4.351 10.766 4.354 C 11.634 4.354 12.435 4.593 13.098 4.984 C 13.761 5.377 14.296 5.918 14.638 6.569 C 14.865 7.001 15.004 7.489 15.005 8.003 C 15.005 8.51 14.921 8.983 14.765 9.404 Z" fill="rgb(255, 255, 255)"></path></svg>