<?xml version="1.0" encoding="utf-8"?>
<!-- Generator: Adobe Illustrator 28.2.0, SVG Export Plug-In . SVG Version: 6.00 Build 0)  -->
<svg version="1.1" id="Layer_1" xmlns="http://www.w3.org/2000/svg" xmlns:xlink="http://www.w3.org/1999/xlink" x="0px" y="0px"
	 viewBox="0 0 14 14" style="enable-background:new 0 0 14 14;" xml:space="preserve">
<style type="text/css">
	.st0{fill:#FFFFFF;}
</style>
<path class="st0" d="M11.7,14H2.3C1,14,0,13,0,11.7V2.3C0,1,1,0,2.3,0h3.1c0.4,0,0.7,0.3,0.7,0.7c0,0.4-0.3,0.7-0.7,0.7H2.3
	c-0.5,0-0.9,0.4-0.9,0.9v9.4c0,0.5,0.4,0.9,0.9,0.9h9.4c0.5,0,0.9-0.4,0.9-0.9V8.6c0-0.4,0.3-0.7,0.7-0.7S14,8.2,14,8.6v3.1
	C14,13,13,14,11.7,14z M6.2,8.5C6,8.5,5.8,8.4,5.7,8.3c-0.3-0.3-0.3-0.7,0-1l5.9-5.9H9.4C9,1.4,8.6,1.1,8.6,0.7C8.6,0.3,9,0,9.4,0
	h3.9c0.1,0,0.2,0,0.3,0.1h0c0.1,0,0.2,0.1,0.2,0.1l0,0l0,0l0,0l0,0l0,0l0,0l0,0l0,0l0,0c0.1,0.1,0.1,0.1,0.1,0.2
	C14,0.5,14,0.6,14,0.7v3.9c0,0.4-0.3,0.7-0.7,0.7c-0.4,0-0.7-0.3-0.7-0.7V2.4L6.7,8.3C6.6,8.4,6.4,8.5,6.2,8.5z"/>
</svg>
