<svg xmlns="http://www.w3.org/2000/svg" viewBox="0 0 1043.63 592.71" fill="currentColor">
  <path d="M588.67 296.36c0 163.66-131.55 296.35-293.78 296.35S1.11 460.02 1.11 296.36 132.66 0 294.89 0s293.78 132.7 293.78 296.36z"/>
  <path d="M905.21 296.36c0 154.48-65.77 279.74-146.93 279.74s-146.93-125.26-146.93-279.74S677.12 16.62 758.28 16.62s146.93 125.26 146.93 279.74z"/>
  <path d="M1043.63 296.36c0 143.92-23.37 260.7-52.19 260.7s-52.19-116.78-52.19-260.7 23.37-260.7 52.19-260.7 52.19 116.78 52.19 260.7z"/>
</svg>
<svg xmlns="http://www.w3.org/2000/svg" width="30" height="30" fill="none"><path d="M 15 0 C 23.284 0 30 6.716 30 15 C 30 23.284 23.284 30 15 30 C 6.716 30 0 23.284 0 15 C 0 6.716 6.716 0 15 0 Z" fill="rgb(255, 255, 255)"></path><path d="M 16.445 14.988 C 16.445 18.556 13.573 21.448 10.03 21.448 C 6.486 21.448 3.614 18.556 3.614 14.988 C 3.614 11.421 6.486 8.529 10.03 8.529 C 13.573 8.529 16.445 11.421 16.445 14.988 M 23.484 14.988 C 23.484 18.347 22.047 21.069 20.276 21.069 C 18.504 21.069 17.068 18.347 17.068 14.988 C 17.068 11.63 18.504 8.908 20.276 8.908 C 22.047 8.908 23.484 11.63 23.484 14.988 M 26.363 14.988 C 26.363 17.997 25.857 20.436 25.234 20.436 C 24.611 20.436 24.106 17.997 24.106 14.988 C 24.106 11.979 24.611 9.54 25.234 9.54 C 25.857 9.54 26.363 11.979 26.363 14.988" fill="rgb(0, 0, 0)"></path></svg>