<?xml version="1.0" encoding="utf-8"?>
<!-- Generator: Adobe Illustrator 28.2.0, SVG Export Plug-In . SVG Version: 6.00 Build 0)  -->
<svg version="1.1" id="Layer_1" xmlns="http://www.w3.org/2000/svg" xmlns:xlink="http://www.w3.org/1999/xlink" x="0px" y="0px"
	 viewBox="0 0 800 800" style="enable-background:new 0 0 800 800;" xml:space="preserve">
<style type="text/css">
	.st0{fill:#FFFFFF;}
</style>
<path class="st0" d="M539.7,66.7H260.3C139,66.7,66.7,139,66.7,260.3v279.3c0,121.3,72.3,193.7,193.7,193.7h279.3
	c121.3,0,193.7-72.3,193.7-193.7V260.3C733.3,139,661,66.7,539.7,66.7z M258.3,453.3c0,13.7-11.3,25-25,25c-13.7,0-25-11.3-25-25
	V346.7c0-13.7,11.3-25,25-25c13.7,0,25,11.3,25,25V453.3z M425,511.3c0,13.7-11.3,25-25,25c-13.7,0-25-11.3-25-25V288.7
	c0-13.7,11.3-25,25-25c13.7,0,25,11.3,25,25V511.3z M591.7,453.3c0,13.7-11.3,25-25,25c-13.7,0-25-11.3-25-25V346.7
	c0-13.7,11.3-25,25-25c13.7,0,25,11.3,25,25V453.3z"/>
</svg>
