<svg xmlns="http://www.w3.org/2000/svg" width="40" height="40" fill="none"><path d="M 20 0 C 8.955 0 0 8.955 0 20 C 0 31.045 8.955 40 20 40 C 31.045 40 40 31.045 40 20 C 40 8.955 31.045 0 20 0 Z" fill="rgb(255, 255, 255)"></path><path d="M 22.064 18.341 L 30.626 8.178 L 28.597 8.178 L 21.162 17.002 L 15.224 8.178 L 8.376 8.178 L 17.355 21.521 L 8.376 32.178 L 10.405 32.178 L 18.256 22.86 L 24.527 32.178 L 31.376 32.178 L 22.063 18.341 Z M 11.136 9.738 L 14.252 9.738 L 28.598 30.69 L 25.481 30.69 Z" fill="rgb(0, 0, 0)"></path></svg>