<svg xmlns="http://www.w3.org/2000/svg" width="40" height="40" fill="none"><path d="M 0 20 C 0 8.954 8.954 0 20 0 C 31.046 0 40 8.954 40 20 C 40 31.046 31.046 40 20 40 C 8.954 40 0 31.046 0 20 Z" fill="rgb(255, 255, 255)"></path><path d="M 11.033 18.052 L 28.772 11.116 C 29.598 10.817 30.317 11.32 30.044 12.58 L 27.026 27.006 C 26.804 28.026 26.2 28.281 25.367 27.793 L 20.768 24.354 L 18.548 26.518 C 18.304 26.765 18.096 26.977 17.621 26.977 L 17.945 22.234 L 26.473 14.431 C 26.847 14.103 26.387 13.914 25.898 14.241 L 15.365 20.966 L 10.825 19.531 C 9.84 19.21 9.819 18.533 11.033 18.052 Z" fill="rgb(0, 0, 0)"></path></svg>