<svg xmlns="http://www.w3.org/2000/svg" width="30" height="30" fill="none" overflow="visible"><g><path d="M 0 6.711 C 0 3.005 3.005 0 6.711 0 C 10.418 0 13.423 3.005 13.423 6.711 C 13.423 10.418 10.418 13.423 6.711 13.423 C 3.005 13.423 0 10.418 0 6.711 Z" fill="rgb(255, 255, 255)"></path><path d="M 16.577 23.289 C 16.577 19.582 19.582 16.577 23.289 16.577 C 26.995 16.577 30 19.582 30 23.289 C 30 26.995 26.995 30 23.289 30 C 19.582 30 16.577 26.995 16.577 23.289 Z" fill="rgb(255, 255, 255)"></path><path d="M 16.577 6.711 C 16.577 3.005 19.582 0 23.289 0 C 26.995 0 30 3.005 30 6.711 C 30 10.418 26.995 13.423 23.289 13.423 C 19.582 13.423 16.577 10.418 16.577 6.711 Z" fill="rgb(255, 255, 255)"></path><path d="M 0 23.289 C 0 19.582 3.005 16.577 6.711 16.577 C 10.418 16.577 13.423 19.582 13.423 23.289 C 13.423 26.995 10.418 30 6.711 30 C 3.005 30 0 26.995 0 23.289 Z" fill="rgb(255, 255, 255)"></path></g></svg>