<svg xmlns="http://www.w3.org/2000/svg" width="40" height="40" fill="none"><path d="M 20 0 C 31.046 0 40 8.954 40 20 C 40 31.046 31.046 40 20 40 C 8.954 40 0 31.046 0 20 C 0 8.954 8.954 0 20 0 Z" fill="rgb(255, 255, 255)"></path><path d="M 21.715 19.529 C 21.715 23.395 18.559 26.529 14.665 26.529 C 10.771 26.529 7.614 23.395 7.614 19.529 C 7.614 15.663 10.771 12.529 14.665 12.529 C 18.559 12.529 21.715 15.663 21.715 19.529 M 29.45 19.529 C 29.45 23.168 27.872 26.118 25.925 26.118 C 23.978 26.118 22.4 23.168 22.4 19.529 C 22.4 15.889 23.978 12.939 25.925 12.939 C 27.872 12.939 29.45 15.889 29.45 19.529 M 32.614 19.529 C 32.614 22.789 32.059 25.432 31.374 25.432 C 30.689 25.432 30.134 22.789 30.134 19.529 C 30.134 16.268 30.689 13.625 31.374 13.625 C 32.059 13.625 32.614 16.268 32.614 19.529" fill="rgb(0, 0, 0)"></path></svg>