<?xml version="1.0" encoding="utf-8"?>
<!-- Generator: Adobe Illustrator 28.2.0, SVG Export Plug-In . SVG Version: 6.00 Build 0)  -->
<svg version="1.1" id="Layer_1" xmlns="http://www.w3.org/2000/svg" xmlns:xlink="http://www.w3.org/1999/xlink" x="0px" y="0px"
	 viewBox="0 0 800 800" style="enable-background:new 0 0 800 800;" xml:space="preserve">
<style type="text/css">
	.st0{fill:#FFFFFF;}
</style>
<path class="st0" d="M539.7,66.7H260.3C139,66.7,66.7,139,66.7,260.3v279c0,121.7,72.3,194,193.7,194h279
	C660.7,733.3,733,661,733,539.7V260.3C733.3,139,661,66.7,539.7,66.7z M400,544.3c-86.9,0-157.4-29.4-157.4-65.6
	c0-8.4,3.9-16.3,10.7-23.7c33.5,22.3,86.6,36.8,146.7,36.8s113.2-14.4,146.7-36.7c6.8,7.3,10.7,15.2,10.7,23.6
	C557.4,514.9,486.9,544.3,400,544.3z M400,465.6c-86.9,0-157.4-29.4-157.4-65.6c0-8.4,3.9-16.3,10.7-23.7
	c33.5,22.3,86.6,36.8,146.7,36.8s113.2-14.4,146.7-36.7c6.8,7.3,10.7,15.2,10.7,23.6C557.4,436.2,486.9,465.6,400,465.6z M400,386.9
	c-86.9,0-157.4-29.4-157.4-65.6c0-36.2,70.5-65.6,157.4-65.6s157.4,29.4,157.4,65.6C557.4,357.5,486.9,386.9,400,386.9z"/>
</svg>
