<?xml version="1.0" encoding="utf-8"?>
<!-- Generator: Adobe Illustrator 28.2.0, SVG Export Plug-In . SVG Version: 6.00 Build 0)  -->
<svg version="1.1" id="Layer_1" xmlns="http://www.w3.org/2000/svg" xmlns:xlink="http://www.w3.org/1999/xlink" x="0px" y="0px"
	 viewBox="0 0 800 800" style="enable-background:new 0 0 800 800;" xml:space="preserve">
<style type="text/css">
	.st0{fill-rule:evenodd;clip-rule:evenodd;}
</style>
<path class="st0" d="M385.1,103.5c9.4-4.7,20.4-4.7,29.8,0l266.7,133.3c11.3,5.6,18.4,17.2,18.4,29.8c0,12.6-7.1,24.2-18.4,29.8
	l-69.3,34.7L683,371c10.8,6,17.3,17.5,17,29.9c-0.3,12.3-7.4,23.5-18.4,29l-69.3,34.7l70.8,39.8c10.8,6,17.3,17.5,17,29.9
	c-0.3,12.3-7.4,23.5-18.4,29L414.9,696.5c-9.4,4.7-20.4,4.7-29.8,0L118.4,563.2c-11-5.5-18.1-16.7-18.4-29
	c-0.3-12.3,6.2-23.8,17-29.9l70.8-39.8l-69.3-34.7c-11-5.5-18.1-16.7-18.4-29c-0.3-12.3,6.2-23.8,17-29.9l70.8-39.8l-69.3-34.7
	c-11.3-5.6-18.4-17.2-18.4-29.8c0-12.6,7.1-24.2,18.4-29.8L385.1,103.5z M259.7,500.5l-55.3,31.1L400,629.4l195.6-97.8l-55.3-31.1
	l-125.4,62.7c-9.4,4.7-20.4,4.7-29.8,0L259.7,500.5z M414.9,429.8l125.3-62.7l55.3,31.1L400,496.1l-195.6-97.8l55.3-31.1l125.3,62.7
	C394.5,434.5,405.5,434.5,414.9,429.8z"/>
</svg>
