<svg xmlns="http://www.w3.org/2000/svg" viewBox="0 0 24 24" fill="currentColor">
  <path d="M9.036 15.803l-.398 5.592c.569 0 .816-.244 1.112-.536l2.665-2.568 5.534 4.051c1.013.56 1.731.265 2.004-.938l3.635-17.09h.001c.322-1.542-.558-2.145-1.546-1.77L1.12 9.44c-1.484.577-1.462 1.404-.253 1.779l5.614 1.752L19.8 6.017c.66-.43 1.26-.192.765.238"/>
</svg>
<svg xmlns="http://www.w3.org/2000/svg" width="30" height="30" fill="none"><path d="M 0 15 C 0 6.716 6.716 0 15 0 C 23.284 0 30 6.716 30 15 C 30 23.284 23.284 30 15 30 C 6.716 30 0 23.284 0 15 Z" fill="rgb(255, 255, 255)"></path><path d="M 6.861 14.678 L 21.328 9.1 C 22.002 8.859 22.588 9.264 22.365 10.277 L 19.904 21.879 C 19.723 22.699 19.23 22.904 18.551 22.512 L 14.801 19.746 L 12.99 21.486 C 12.791 21.686 12.621 21.855 12.234 21.855 L 12.498 18.041 L 19.453 11.766 C 19.758 11.502 19.383 11.35 18.984 11.613 L 10.395 17.021 L 6.691 15.867 C 5.889 15.609 5.871 15.064 6.861 14.678 Z" fill="rgb(0, 0, 0)"></path></svg>