<?xml version="1.0" encoding="utf-8"?>
<!-- Generator: Adobe Illustrator 28.2.0, SVG Export Plug-In . SVG Version: 6.00 Build 0)  -->
<svg version="1.1" id="Layer_1" xmlns="http://www.w3.org/2000/svg" xmlns:xlink="http://www.w3.org/1999/xlink" x="0px" y="0px"
	 viewBox="0 0 800 800" style="enable-background:new 0 0 800 800;" xml:space="preserve">
<style type="text/css">
	.st0{fill:#FFFFFF;}
</style>
<path class="st0" d="M700,0H100C72.4,0,50,22.4,50,50v700c0,27.6,22.4,50,50,50h600c27.6,0,50-22.4,50-50V50C750,22.4,727.6,0,700,0
	z M300,250h100c27.6,0,50,22.4,50,50s-22.4,50-50,50H300c-27.6,0-50-22.4-50-50S272.4,250,300,250z M500,550H300
	c-27.6,0-50-22.4-50-50c0-27.6,22.4-50,50-50h200c27.6,0,50,22.4,50,50C550,527.6,527.6,550,500,550z"/>
</svg>
