<svg xmlns="http://www.w3.org/2000/svg" viewBox="0 0 24 24" fill="currentColor">
  <path d="M18.244 3H21L13.326 12.73 22.5 24h-6.73l-5.27-6.41L4.5 24H1l8.24-9.89L0 3h6.73l4.77 5.85L18.244 3z"/>
</svg>
<svg xmlns="http://www.w3.org/2000/svg" width="30" height="30" fill="none"><path d="M 15 0 C 6.716 0 0 6.716 0 15 C 0 23.284 6.716 30 15 30 C 23.284 30 30 23.284 30 15 C 30 6.716 23.284 0 15 0 Z" fill="rgb(255, 255, 255)"></path><path d="M 16.641 13.643 L 23.062 6.178 L 21.541 6.178 L 15.965 12.659 L 11.512 6.178 L 6.376 6.178 L 13.11 15.979 L 6.376 23.806 L 7.897 23.806 L 13.785 16.962 L 18.488 23.806 L 23.624 23.806 L 16.641 13.643 Z M 8.446 7.324 L 10.783 7.324 L 21.541 22.713 L 19.204 22.713 Z" fill="rgb(0, 0, 0)"></path></svg>