<?xml version="1.0" encoding="utf-8"?>
<!-- Generator: Adobe Illustrator 28.2.0, SVG Export Plug-In . SVG Version: 6.00 Build 0)  -->
<svg version="1.1" id="Layer_1" xmlns="http://www.w3.org/2000/svg" fill="currentColor" xmlns:xlink="http://www.w3.org/1999/xlink" x="0px" y="0px"
	 viewBox="0 0 800 800" style="enable-background:new 0 0 800 800;" xml:space="preserve">
<path d="M400,750c-5.9,0-11.9-1.4-17.3-4.2L70.2,583.3c-18.4-9.6-25.5-32.2-16-50.6c9.6-18.4,32.2-25.5,50.6-16L400,670.2
	l295.2-153.5c18.4-9.6,41-2.4,50.6,16c9.6,18.4,2.4,41-16,50.6L417.3,745.8C411.9,748.6,405.9,750,400,750z M400,600
	c-5.9,0-11.9-1.4-17.3-4.2L70.2,433.3c-12.5-6.5-20.3-19.5-20.2-33.6c0.1-14.1,8.1-26.9,20.7-33.2l125-62.5
	c18.5-9.3,41-1.8,50.3,16.8c9.3,18.5,1.8,41-16.8,50.3L170,400.7l230,119.6l230-119.6L570.7,371c-18.5-9.3-26-31.8-16.8-50.3
	c9.3-18.5,31.8-26,50.3-16.8l125,62.5c12.6,6.3,20.6,19.1,20.7,33.2c0.1,14.1-7.7,27.1-20.2,33.6L417.3,595.8
	C411.9,598.6,405.9,600,400,600z"/>
<path d="M400,450c-20.7,0-37.5-16.8-37.5-37.5V171l-50.1,44.5c-15.5,13.8-39.2,12.4-52.9-3.1c-13.8-15.5-12.4-39.2,3.1-52.9
	l112.5-100c0.2-0.2,0.5-0.4,0.7-0.6c0,0,0,0,0,0c0,0,0.1-0.1,0.1-0.1c0,0,0,0,0.1,0c0,0,0.1-0.1,0.1-0.1c0,0,0,0,0.1-0.1
	c0,0,0.1-0.1,0.1-0.1c0,0,0,0,0.1-0.1c0,0,0.1-0.1,0.1-0.1c0,0,0,0,0.1-0.1c0,0,0.1-0.1,0.1-0.1c0,0,0,0,0.1-0.1
	c0,0,0.1-0.1,0.1-0.1c0,0,0,0,0.1-0.1c0,0,0.1-0.1,0.1-0.1c0,0,0,0,0.1,0c0,0,0.1-0.1,0.1-0.1c0,0,0,0,0.1-0.1c0,0,0.1-0.1,0.1-0.1
	c0,0,0,0,0.1,0c0,0,0.1-0.1,0.1-0.1c0,0,0,0,0.1,0c0,0,0.1-0.1,0.1-0.1c0,0,0,0,0.1,0c0,0,0.1-0.1,0.1-0.1c0,0,0,0,0.1,0
	c0,0,0.1-0.1,0.1-0.1c0,0,0,0,0.1,0c0,0,0.1-0.1,0.1-0.1c0,0,0,0,0.1,0c0,0,0.1-0.1,0.1-0.1c0,0,0,0,0,0c0,0,0.1-0.1,0.1-0.1
	c0,0,0,0,0.1,0c0,0,0.1-0.1,0.1-0.1c0,0,0,0,0.1,0c0,0,0.1-0.1,0.1-0.1c0,0,0,0,0.1,0c0,0,0.1,0,0.1-0.1c0,0,0,0,0.1,0
	c0,0,0.1,0,0.1-0.1c0,0,0.1,0,0.1-0.1c0,0,0.1,0,0.1-0.1c0,0,0.1,0,0.1-0.1c0,0,0,0,0.1,0c5.4-3.5,11.8-5.6,18.6-5.9
	c1.1,0,2.2,0,3.4,0c6.9,0.3,13.2,2.4,18.6,5.9c0,0,0,0,0.1,0c0,0,0.1,0,0.1,0.1c0,0,0.1,0,0.1,0.1c0,0,0.1,0,0.1,0.1
	c0,0,0.1,0,0.1,0.1c0,0,0,0,0.1,0c0,0,0.1,0.1,0.1,0.1c0,0,0,0,0.1,0c0,0,0.1,0.1,0.1,0.1c0,0,0,0,0.1,0c0,0,0.1,0.1,0.1,0.1
	c0,0,0,0,0.1,0c0,0,0.1,0.1,0.1,0.1c0,0,0,0,0,0c0,0,0.1,0.1,0.1,0.1c0,0,0,0,0.1,0c0,0,0.1,0.1,0.1,0.1c0,0,0,0,0.1,0
	c0,0,0.1,0.1,0.1,0.1c0,0,0,0,0.1,0c0,0,0.1,0.1,0.1,0.1c0,0,0,0,0.1,0c0,0,0.1,0.1,0.1,0.1c0,0,0,0,0.1,0c0,0,0.1,0.1,0.1,0.1
	c0,0,0,0,0.1,0c0,0,0.1,0.1,0.1,0.1c0,0,0,0,0.1,0.1c0,0,0.1,0.1,0.1,0.1c0,0,0,0,0.1,0c0,0,0.1,0.1,0.1,0.1c0,0,0,0,0.1,0.1
	c0,0,0.1,0.1,0.1,0.1c0,0,0,0,0.1,0.1c0,0,0.1,0.1,0.1,0.1c0,0,0,0,0.1,0.1c0,0,0.1,0.1,0.1,0.1c0,0,0,0,0.1,0.1
	c0,0,0.1,0.1,0.1,0.1c0,0,0,0,0.1,0.1c0,0,0.1,0.1,0.1,0.1c0,0,0,0,0.1,0c0,0,0.1,0.1,0.1,0.1c0,0,0,0,0,0c0.2,0.2,0.5,0.4,0.7,0.6
	l112.5,100c15.5,13.8,16.9,37.5,3.1,52.9c-13.8,15.5-37.5,16.9-52.9,3.1L437.5,171v241.5C437.5,433.2,420.7,450,400,450z"/>
</svg>
