<?xml version="1.0" encoding="utf-8"?>
<!-- Generator: Adobe Illustrator 28.2.0, SVG Export Plug-In . SVG Version: 6.00 Build 0)  -->
<svg version="1.1" id="Layer_1" xmlns="http://www.w3.org/2000/svg" xmlns:xlink="http://www.w3.org/1999/xlink" x="0px" y="0px"
	 viewBox="0 0 800 800" style="enable-background:new 0 0 800 800;" xml:space="preserve">
<style type="text/css">
	.st0{fill-rule:evenodd;clip-rule:evenodd;fill:#FFFFFF;}
</style>
<path class="st0" d="M400,266.7c0-36.8,29.9-66.7,66.7-66.7H600c36.8,0,66.7,29.8,66.7,66.7v266.7c0,36.8-29.8,66.7-66.7,66.7H466.7
	c-36.8,0-66.7-29.8-66.7-66.7V266.7z M466.7,233.3c-18.4,0-33.3,14.9-33.3,33.3v266.7c0,18.4,14.9,33.3,33.3,33.3H600
	c18.4,0,33.3-14.9,33.3-33.3V266.7c0-18.4-14.9-33.3-33.3-33.3H466.7z"/>
<path class="st0" d="M183.3,200c-27.6,0-50,22.4-50,50v300c0,27.6,22.4,50,50,50h333.3c27.6,0,50-22.4,50-50V250
	c0-27.6-22.4-50-50-50H183.3z M250,450c27.6,0,50-22.4,50-50c0-27.6-22.4-50-50-50c-27.6,0-50,22.4-50,50
	C200,427.6,222.4,450,250,450z"/>
</svg>
